<svg xmlns="http://www.w3.org/2000/svg" fill="#000000" viewBox="0,0,14,14">
  <path d="M7,0.5C3.41015,0.5 0.5,3.41015 0.5,7C0.5,10.5899 3.41015,13.5 7,13.5C10.5899,13.5 13.5,10.5899 13.5,7C13.5,3.41015 10.5899,0.5 7,0.5ZM7,1.5C10.0376,1.5 12.5,3.96243 12.5,7C12.5,10.0376 10.0376,12.5 7,12.5C3.96243,12.5 1.5,10.0376 1.5,7C1.5,3.96243 3.96243,1.5 7,1.5Z"/>
  <path d="M5.91531,9.68461L3.37685,7.13076C3.28454,7.03845 3.28454,6.88461 3.37685,6.7923L3.71531,6.45384C3.80762,6.36153 3.96146,6.36153 4.05377,6.45384L5.96146,8.37691C6.023,8.43845 6.13069,8.43845 6.19223,8.37691L9.93069,4.60768C10.023,4.51538 10.1768,4.51538 10.2692,4.60768L10.6076,4.94614C10.6999,5.03845 10.6999,5.1923 10.6076,5.28461L6.25377,9.68461C6.16146,9.7923 6.00762,9.7923 5.91531,9.68461L5.91531,9.68461Z"/>
</svg>
