<svg xmlns="http://www.w3.org/2000/svg" fill="#000000" viewBox="0,0,42,48">
  <path d="M3.832,0C3.332,-0.001 2.837,0.097 2.375,0.287C1.913,0.478 1.493,0.758 1.139,1.111C0.785,1.464 0.504,1.884 0.313,2.346C0.121,2.807 0.022,3.303 0.022,3.803V44.19C0.022,46.29 1.725,47.993 3.832,47.993H38.16C40.26,47.993 41.963,46.29 41.963,44.182V15.27H32.4C28.65,15.27 27.825,12.165 27.825,10.927V0.041L27.788,0H3.832ZM15.232,32.4C15.322,32.505 15.375,32.64 15.375,32.79C15.375,33.075 15.15,33.33 14.85,33.33C14.715,33.33 14.565,33.278 14.475,33.158C14.193,32.835 13.846,32.575 13.457,32.395C13.068,32.216 12.646,32.12 12.217,32.115C10.245,32.115 8.745,33.63 8.745,35.775C8.745,37.905 10.245,39.435 12.217,39.435C13.065,39.435 13.905,39.068 14.475,38.408C14.565,38.295 14.715,38.235 14.85,38.235C15.165,38.235 15.375,38.498 15.375,38.783C15.375,38.917 15.322,39.053 15.232,39.165C14.847,39.576 14.379,39.902 13.86,40.12C13.34,40.338 12.781,40.445 12.217,40.432C9.622,40.432 7.59,38.542 7.59,35.775C7.59,33.007 9.622,31.118 12.217,31.118C13.567,31.118 14.542,31.657 15.232,32.4ZM20.332,40.432C18.997,40.432 17.94,39.99 17.175,39.315C17.118,39.264 17.072,39.202 17.041,39.132C17.01,39.062 16.994,38.986 16.995,38.91C16.995,38.64 17.197,38.34 17.52,38.34C17.632,38.34 17.752,38.37 17.842,38.445C18.465,39 19.327,39.435 20.37,39.435C21.975,39.435 22.492,38.565 22.492,37.882C22.492,36.814 21.367,36.507 20.149,36.176C18.718,35.786 17.16,35.362 17.16,33.623C17.16,32.138 18.48,31.125 20.25,31.125C21.412,31.125 22.41,31.478 23.137,32.085C23.257,32.19 23.325,32.34 23.325,32.49C23.325,32.76 23.1,33.03 22.8,33.03C22.695,33.03 22.575,32.993 22.477,32.91C21.822,32.388 21.005,32.11 20.167,32.123C19.087,32.13 18.315,32.708 18.315,33.555C18.315,34.44 19.335,34.718 20.483,35.03C21.962,35.433 23.655,35.893 23.655,37.785C23.655,39.097 22.762,40.432 20.332,40.432ZM33.075,31.995L29.955,39.743C29.812,40.11 29.445,40.35 29.07,40.35H29.04C28.65,40.35 28.282,40.11 28.132,39.743L25.027,31.995C24.997,31.927 24.99,31.86 24.99,31.778C24.99,31.507 25.23,31.185 25.597,31.185C25.822,31.185 26.04,31.32 26.137,31.545L29.055,39.037L31.965,31.545C32.047,31.327 32.265,31.185 32.505,31.185C32.602,31.184 32.699,31.206 32.786,31.251C32.873,31.295 32.947,31.36 33.004,31.44C33.06,31.519 33.096,31.612 33.108,31.708C33.12,31.805 33.109,31.904 33.075,31.995Z"/>
  <path d="M27.825,0.008V10.927C27.825,12.165 28.65,15.27 32.4,15.27H42L27.825,0.008Z"/>
</svg>
