<svg xmlns="http://www.w3.org/2000/svg" fill="#000000" viewBox="0,0,32,32">
  <path d="M15.9339,6.8333C18.4016,6.8333 20.4206,8.9768 20.577,11.686L20.5868,11.8955L20.5859,12.6522L21.7199,12.7289L21.9291,12.7486L22.2412,12.7925C22.4072,12.8206 22.567,12.8555 22.7174,12.8974C23.0354,12.9859 23.3056,13.1032 23.5179,13.2608C23.8568,13.5123 24.0822,13.8135 24.1894,14.2038C24.2277,14.3435 24.2483,14.4771 24.2566,14.637L24.261,14.8067L24.2593,14.9422L24.2495,15.2368L24.2396,15.6413L24.2295,15.8297C25.2867,16.3889 26,17.448 26,18.6624C26,20.0553 25.0616,21.2438 23.7422,21.7081L23.6773,21.7283L23.6008,22.4054L23.5656,22.6637L23.539,22.8187C23.4697,23.1961 23.3692,23.5088 23.2179,23.7785C22.967,24.2255 22.5269,24.5122 21.9545,24.6927C21.7808,24.7475 21.597,24.7915 21.3982,24.8268L21.1941,24.8591L20.9614,24.8875L20.0583,24.9749L19.4737,25.0192L18.8312,25.0593L18.133,25.0949L17.1654,25.1338L15.983,25.1667L15.1909,25.1477L13.7692,25.0936L13.2953,25.07L12.8277,25.0432L12.1907,25L11.6543,24.9558L10.9635,24.8869L10.729,24.8581C10.457,24.8197 10.2074,24.7657 9.9758,24.6926C9.4035,24.5121 8.9634,24.2254 8.7125,23.7784C8.6135,23.6021 8.5363,23.407 8.4728,23.1762L8.4276,22.9961L8.3904,22.8131L8.346,22.5357L8.2491,21.705C6.9343,21.2385 6,20.0522 6,18.6624C6,17.4737 6.6834,16.4339 7.7038,15.8659L7.6926,15.6781L7.6845,15.4696L7.6827,15.3105L7.6693,14.8275C7.6683,14.5755 7.6868,14.4014 7.741,14.2039C7.8482,13.8136 8.0736,13.5124 8.4125,13.2608C8.6249,13.1032 8.895,12.9859 9.213,12.8974C9.3152,12.8689 9.4216,12.8437 9.5365,12.8208L9.7155,12.7883L9.9466,12.755L10.0675,12.7414L11.2809,12.656L11.281,11.8955C11.3439,9.0881 13.4029,6.8333 15.9339,6.8333ZM15.8543,14.2928L15.1936,14.3212L14.3877,14.3668L13.0545,14.4502L10.2457,14.6401L9.9549,14.6783C9.8377,14.698 9.7285,14.7217 9.6311,14.7488L9.551,14.7728L9.4832,14.796L9.3879,14.8348L9.399,15.1632L9.4058,15.497L9.4314,15.9363L9.4728,16.5089L9.8709,20.6891L9.9482,21.4092L10.0514,22.2898L10.0987,22.5478C10.1242,22.6587 10.1498,22.7299 10.1717,22.7689C10.1509,22.732 10.245,22.7933 10.4456,22.8565C10.5888,22.9017 10.755,22.9377 10.946,22.9646L11.1202,22.9861L12.0455,23.0751L12.7538,23.1267L13.8428,23.1866L14.8166,23.226L15.9415,23.2584L16.72,23.2387L17.7157,23.203L18.4085,23.171L19.0576,23.1344L19.6492,23.0938C19.8364,23.0797 20.0136,23.0648 20.1802,23.0494L20.7982,22.9874L20.9844,22.9647C21.1754,22.9377 21.3416,22.9017 21.4847,22.8566L21.6304,22.8051L21.7485,22.7591C21.7612,22.7559 21.7646,22.7584 21.7587,22.769C21.7827,22.7262 21.8093,22.6498 21.8345,22.5365L21.8531,22.4445L21.8812,22.2744L21.9201,21.9402L22.515,15.6776L22.5238,15.5163L22.5408,14.8348L22.5015,14.8172L22.3794,14.7728L22.2993,14.7488C22.2019,14.7217 22.0933,14.6981 21.9783,14.6788L21.8018,14.6531L21.7015,14.6418L20.2574,14.5415L18.302,14.4135L17.2888,14.3518L16.3447,14.3023L16.0735,14.2937L15.9652,14.3106L15.8543,14.2928ZM12.4442,16.4928C13.0805,16.4928 13.5842,17.2395 13.5842,18.1458C13.5842,19.0521 13.0805,19.7988 12.4442,19.7988C11.808,19.7988 11.3043,19.0521 11.3043,18.1458C11.3043,17.2395 11.808,16.4928 12.4442,16.4928ZM19.377,16.4928C20.0133,16.4928 20.517,17.2395 20.517,18.1458C20.517,19.0521 20.0133,19.7988 19.377,19.7988C18.7408,19.7988 18.2371,19.0521 18.2371,18.1458C18.2371,17.2395 18.7408,16.4928 19.377,16.4928Z"/>
</svg>
