<svg xmlns="http://www.w3.org/2000/svg" fill="#000000" viewBox="0,0,32,32">
  <path d="M16.0002 1.23071C7.87711 1.23071 1.23096 7.87687 1.23096 15.9999C1.23096 24.123 7.87711 30.7692 16.0002 30.7692C24.1233 30.7692 30.7694 24.123 30.7694 15.9999C30.7694 7.87687 24.1233 1.23071 16.0002 1.23071ZM4.92331 15.9999C4.92331 9.90758 9.90793 4.92297 16.0002 4.92297C18.4002 4.92297 20.6156 5.66143 22.4002 6.95374L6.95408 22.3999C5.66177 20.6153 4.92331 18.3999 4.92331 15.9999ZM15.9999 27.0769C13.5999 27.0769 11.3846 26.3385 9.59995 25.0462L25.0461 9.6C26.3384 11.3846 27.0769 13.6 27.0769 16C27.0769 22.0923 22.0923 27.0769 15.9999 27.0769Z"/>
</svg>
