<svg xmlns="http://www.w3.org/2000/svg" fill="#000000" viewBox="0,0,42,48">
  <path d="M3.863,-0.03C3.363,-0.03 2.868,0.069 2.406,0.26C1.944,0.452 1.524,0.732 1.171,1.086C0.818,1.44 0.538,1.86 0.347,2.323C0.157,2.785 0.059,3.28 0.06,3.78V44.16C0.06,46.26 1.763,47.963 3.863,47.963H38.198C40.298,47.963 42,46.26 42,44.16V15.24H32.408C28.657,15.24 27.833,12.135 27.833,10.898V-0.022L27.825,-0.03H3.863ZM30.86,3.232L42,15.232V15.203L30.86,3.232ZM14.07,32.287H11.617V39.818C11.617,40.132 11.37,40.373 11.047,40.373C10.74,40.373 10.492,40.132 10.492,39.818V32.28L8.047,32.287C7.777,32.287 7.567,32.07 7.567,31.77C7.567,31.5 7.777,31.282 8.047,31.282H14.07C14.34,31.282 14.557,31.5 14.557,31.8C14.557,32.07 14.34,32.287 14.07,32.287ZM22.845,40.388C22.687,40.388 22.537,40.32 22.44,40.185L19.65,36.458L16.837,40.185C16.792,40.249 16.731,40.302 16.66,40.337C16.59,40.372 16.511,40.39 16.432,40.388C16.132,40.388 15.892,40.155 15.892,39.847C15.892,39.735 15.922,39.615 15.997,39.525L18.915,35.678L16.2,32.055C16.132,31.958 16.095,31.853 16.095,31.74C16.095,31.485 16.312,31.2 16.635,31.2C16.8,31.2 16.957,31.282 17.07,31.417L19.65,34.89L22.222,31.403C22.32,31.267 22.47,31.2 22.635,31.2C22.734,31.202 22.83,31.23 22.915,31.281C22.999,31.333 23.068,31.406 23.115,31.493C23.162,31.58 23.184,31.678 23.18,31.777C23.176,31.876 23.146,31.972 23.092,32.055L20.377,35.662L23.295,39.517C23.362,39.615 23.385,39.72 23.385,39.833C23.385,40.132 23.145,40.388 22.845,40.388ZM31.245,32.287H28.785V39.818C28.785,40.132 28.545,40.373 28.222,40.373C27.907,40.373 27.667,40.132 27.667,39.818V32.28L25.222,32.287C24.952,32.287 24.735,32.07 24.735,31.77C24.735,31.5 24.952,31.282 25.222,31.282H31.245C31.515,31.282 31.732,31.5 31.732,31.8C31.732,32.07 31.515,32.287 31.245,32.287Z"/>
  <path d="M27.833,-0.03V10.898C27.833,12.135 28.657,15.24 32.408,15.24H42.007L27.833,-0.03Z"/>
</svg>
