<svg xmlns="http://www.w3.org/2000/svg" fill="#000000" viewBox="0,0,14,14">
  <path d="M2.585,8.347C2.369,8.562 2.369,8.859 2.585,9.074L6.623,13.032C6.838,13.247 7.162,13.247 7.377,13.032L11.442,9.074C11.658,8.859 11.658,8.562 11.442,8.347L10.689,7.62C10.588,7.521 10.453,7.466 10.312,7.466C10.171,7.466 10.035,7.521 9.935,7.62L8.669,8.859C8.454,9.074 8.077,8.939 8.077,8.616V1.347C8.077,1.078 7.835,0.809 7.538,0.809H6.462C6.165,0.809 5.923,1.105 5.923,1.347V8.616C5.923,8.939 5.546,9.074 5.331,8.859L4.065,7.62C3.965,7.521 3.829,7.466 3.688,7.466C3.548,7.466 3.412,7.521 3.312,7.62L2.585,8.347Z"/>
</svg>
