<svg xmlns="http://www.w3.org/2000/svg" fill="#000000" viewBox="0,0,42,48">
  <path d="M27.788,0.008V10.92C27.788,12.165 28.613,15.262 32.363,15.262H41.963L27.795,0.008H27.795L41.97,15.24V44.19C41.97,46.29 40.267,48 38.167,48H3.832C1.732,48 0.03,46.29 0.03,44.19V3.81C0.03,2.802 0.43,1.834 1.144,1.121C1.857,0.408 2.824,0.008 3.832,0.008H27.788ZM14.573,40.455C14.408,40.455 14.258,40.388 14.168,40.252L11.37,36.525L8.565,40.252C8.519,40.317 8.459,40.369 8.388,40.404C8.317,40.44 8.239,40.457 8.16,40.455C7.86,40.455 7.62,40.222 7.62,39.915C7.62,39.803 7.643,39.682 7.725,39.592L10.643,35.745L7.928,32.123C7.86,32.025 7.823,31.92 7.823,31.808C7.824,31.695 7.86,31.587 7.927,31.496C7.993,31.406 8.085,31.338 8.192,31.303C8.298,31.267 8.413,31.266 8.52,31.298C8.627,31.331 8.722,31.396 8.79,31.485L11.37,34.958L13.95,31.478C14.048,31.343 14.19,31.275 14.355,31.275C14.64,31.275 14.91,31.5 14.91,31.815C14.91,31.92 14.88,32.025 14.813,32.123L12.098,35.73L15.015,39.592C15.083,39.682 15.113,39.795 15.113,39.9C15.113,40.2 14.865,40.455 14.573,40.455ZM22.065,40.357H17.97C17.528,40.357 17.16,39.998 17.16,39.548V31.808C17.16,31.515 17.408,31.275 17.745,31.275C18.038,31.275 18.285,31.515 18.285,31.815V39.36H22.065C22.335,39.36 22.553,39.577 22.553,39.847C22.553,40.14 22.335,40.357 22.065,40.357ZM27.3,40.522C25.965,40.522 24.908,40.072 24.143,39.397C24.085,39.347 24.039,39.285 24.008,39.215C23.977,39.145 23.962,39.069 23.963,38.993C23.963,38.722 24.165,38.43 24.488,38.43C24.6,38.43 24.72,38.452 24.818,38.535C25.44,39.09 26.303,39.518 27.338,39.518C28.95,39.518 29.46,38.655 29.46,37.965C29.46,36.901 28.336,36.596 27.121,36.266C25.688,35.877 24.128,35.453 24.128,33.713C24.128,32.228 25.448,31.215 27.218,31.215C28.38,31.215 29.378,31.567 30.113,32.175C30.233,32.28 30.3,32.43 30.3,32.58C30.3,32.85 30.068,33.12 29.775,33.12C29.663,33.12 29.543,33.075 29.445,33C28.791,32.48 27.978,32.202 27.143,32.213C26.063,32.213 25.29,32.798 25.29,33.645C25.29,34.529 26.307,34.806 27.453,35.117C28.931,35.519 30.623,35.978 30.623,37.875C30.623,39.188 29.73,40.522 27.3,40.522Z"/>
  <path d="M27.788,0V10.92C27.788,12.165 28.613,15.262 32.363,15.262H41.963L27.788,0Z"/>
</svg>
