<svg xmlns="http://www.w3.org/2000/svg" fill="#000000" viewBox="0,0,100,100">
  <path d="M96,0L4,0A4,4 0,0 0,0 4L0,96a4,4 0,0 0,4 4L96,100a4,4 0,0 0,4 -4L100,4A4,4 0,0 0,96 0ZM19.7,31.6l2.1,-2.1a1.45,1.45 0,0 1,2.1 0l5.3,5.3L42.4,21.6a1.45,1.45 0,0 1,2.1 0l2.1,2.1a1.66,1.66 0,0 1,0 2.1L31.3,41.1a2.88,2.88 0,0 1,-2.1 0.9,3 3,0 0,1 -2.1,-0.9l-7.4,-7.4A1.45,1.45 0,0 1,19.7 31.6ZM35,72a2,2 0,0 1,-2 2L29,74a2,2 0,0 1,-2 -2L27,68a2,2 0,0 1,2 -2h4a2,2 0,0 1,2 2ZM35,54a2,2 0,0 1,-2 2L29,56a2,2 0,0 1,-2 -2L27,50a2,2 0,0 1,2 -2h4a2,2 0,0 1,2 2ZM79,72a2,2 0,0 1,-2 2L45,74a2,2 0,0 1,-2 -2L43,68a2,2 0,0 1,2 -2L77,66a2,2 0,0 1,2 2ZM79,54a2,2 0,0 1,-2 2L45,56a2,2 0,0 1,-2 -2L43,50a2,2 0,0 1,2 -2L77,48a2,2 0,0 1,2 2ZM79,36a2,2 0,0 1,-2 2L51,38a2,2 0,0 1,-2 -2L49,32a2,2 0,0 1,2 -2L77,30a2,2 0,0 1,2 2Z"/>
</svg>
