<svg xmlns="http://www.w3.org/2000/svg" fill="#000000" viewBox="0,0,42,48">
  <path d="M3.832,-0C2.828,-0.008 1.861,0.382 1.142,1.084C0.424,1.787 0.014,2.745 -0,3.75V44.16C-0.005,44.665 0.09,45.166 0.281,45.633C0.472,46.101 0.754,46.526 1.111,46.884C1.467,47.241 1.892,47.524 2.359,47.716C2.826,47.907 3.327,48.004 3.832,48H38.167C38.672,48.004 39.173,47.907 39.64,47.716C40.108,47.524 40.532,47.241 40.889,46.884C41.246,46.526 41.528,46.101 41.718,45.633C41.909,45.166 42.005,44.665 42,44.16V15.262H32.385C31.794,15.296 31.203,15.209 30.648,15.006C30.093,14.803 29.585,14.488 29.155,14.081C28.726,13.674 28.385,13.184 28.152,12.641C27.919,12.097 27.8,11.511 27.802,10.92V0.008L27.795,-0H3.832ZM29.675,2.013L42,15.262V15.21L29.675,2.013ZM10.68,40.395H8.43C8.215,40.395 8.009,40.31 7.857,40.158C7.705,40.006 7.62,39.8 7.62,39.585V32.197C7.62,31.983 7.705,31.777 7.857,31.625C8.009,31.473 8.215,31.388 8.43,31.388H10.68C11.874,31.388 13.018,31.862 13.862,32.706C14.706,33.549 15.18,34.694 15.18,35.888C15.18,37.081 14.706,38.226 13.862,39.069C13.018,39.913 11.874,40.388 10.68,40.388V40.395ZM10.68,32.393H8.723V39.397H10.68C11.143,39.419 11.606,39.344 12.038,39.175C12.469,39.007 12.861,38.749 13.187,38.42C13.513,38.09 13.766,37.696 13.93,37.262C14.094,36.829 14.164,36.365 14.138,35.903C14.17,35.438 14.104,34.971 13.942,34.534C13.781,34.097 13.528,33.699 13.201,33.367C12.874,33.035 12.48,32.777 12.045,32.609C11.611,32.441 11.145,32.367 10.68,32.393ZM21.495,40.56C20.886,40.576 20.281,40.465 19.718,40.234C19.154,40.003 18.645,39.658 18.222,39.22C17.798,38.782 17.471,38.261 17.26,37.69C17.049,37.119 16.958,36.51 16.995,35.903C16.922,35.272 16.983,34.633 17.174,34.028C17.365,33.423 17.683,32.865 18.105,32.391C18.527,31.917 19.045,31.538 19.624,31.278C20.203,31.018 20.83,30.884 21.465,30.884C22.1,30.884 22.727,31.018 23.306,31.278C23.886,31.538 24.403,31.917 24.826,32.391C25.248,32.865 25.565,33.423 25.756,34.028C25.947,34.633 26.008,35.272 25.935,35.903C25.97,36.505 25.881,37.108 25.673,37.675C25.465,38.241 25.143,38.759 24.727,39.195C24.31,39.632 23.809,39.979 23.253,40.214C22.697,40.448 22.098,40.566 21.495,40.56ZM21.495,32.243C19.47,32.243 18.188,33.795 18.188,35.903C18.188,38.01 19.47,39.563 21.495,39.563C23.52,39.563 24.803,37.995 24.803,35.903C24.803,33.81 23.513,32.25 21.495,32.25V32.243ZM35.333,32.528C35.431,32.633 35.485,32.773 35.483,32.917C35.484,32.987 35.471,33.057 35.445,33.122C35.419,33.187 35.381,33.246 35.332,33.296C35.283,33.346 35.225,33.387 35.161,33.414C35.097,33.442 35.028,33.457 34.958,33.458C34.884,33.459 34.812,33.443 34.745,33.412C34.679,33.381 34.621,33.335 34.575,33.278C34.293,32.957 33.948,32.699 33.56,32.521C33.173,32.343 32.752,32.248 32.325,32.243C31.852,32.24 31.384,32.334 30.949,32.519C30.514,32.705 30.121,32.977 29.796,33.32C29.471,33.663 29.219,34.069 29.057,34.514C28.894,34.958 28.825,35.431 28.853,35.903C28.827,36.374 28.898,36.846 29.061,37.289C29.224,37.732 29.476,38.138 29.801,38.48C30.126,38.823 30.517,39.095 30.951,39.282C31.385,39.468 31.853,39.563 32.325,39.563C32.752,39.561 33.173,39.469 33.561,39.292C33.949,39.114 34.295,38.856 34.575,38.535C34.623,38.48 34.682,38.436 34.747,38.405C34.813,38.374 34.885,38.357 34.958,38.355C35.028,38.357 35.098,38.373 35.163,38.402C35.228,38.431 35.286,38.472 35.335,38.524C35.384,38.575 35.422,38.636 35.447,38.702C35.473,38.769 35.485,38.839 35.483,38.91C35.48,39.051 35.427,39.187 35.333,39.292C34.95,39.702 34.484,40.027 33.967,40.246C33.451,40.464 32.894,40.571 32.333,40.56C31.129,40.512 29.99,40 29.156,39.131C28.321,38.262 27.855,37.104 27.855,35.899C27.855,34.694 28.321,33.536 29.156,32.667C29.99,31.798 31.129,31.286 32.333,31.237C32.896,31.226 33.455,31.335 33.972,31.558C34.49,31.78 34.954,32.111 35.333,32.528Z"/>
  <path d="M27.802,0V10.92C27.8,11.511 27.919,12.097 28.152,12.641C28.385,13.184 28.726,13.674 29.155,14.081C29.585,14.488 30.093,14.803 30.648,15.006C31.203,15.209 31.794,15.296 32.385,15.262H42L27.802,0Z"/>
</svg>
