<svg xmlns="http://www.w3.org/2000/svg" fill="#000000" viewBox="0,0,42,48">
  <path d="M3.832,-0.015C2.824,-0.015 1.857,0.386 1.144,1.099C0.43,1.812 0.03,2.779 0.03,3.788V44.168C0.03,46.268 1.732,47.978 3.832,47.978H38.167C40.267,47.978 41.97,46.268 41.97,44.168V15.262H32.385C28.635,15.262 27.803,12.165 27.803,10.92V0L41.97,15.246V15.218L27.795,-0.015H3.832ZM14.528,40.388C14.363,40.388 14.22,40.32 14.123,40.185L11.325,36.458L8.52,40.185C8.475,40.249 8.414,40.302 8.343,40.337C8.272,40.372 8.194,40.39 8.115,40.388C7.815,40.388 7.575,40.155 7.575,39.847C7.575,39.735 7.598,39.615 7.68,39.525L10.598,35.678L7.883,32.055C7.815,31.958 7.778,31.853 7.778,31.74C7.778,31.485 7.995,31.2 8.318,31.2C8.475,31.2 8.64,31.282 8.745,31.417L11.325,34.89L13.905,31.403C14.003,31.267 14.153,31.2 14.31,31.2C14.595,31.2 14.865,31.433 14.865,31.74C14.865,31.853 14.835,31.958 14.768,32.055L12.053,35.662L14.97,39.517C15.025,39.6 15.057,39.695 15.063,39.794C15.068,39.892 15.047,39.991 15.002,40.079C14.957,40.167 14.889,40.241 14.806,40.294C14.722,40.347 14.626,40.376 14.528,40.38V40.388ZM25.373,40.373C25.058,40.373 24.818,40.132 24.818,39.818V32.88L21.788,40.2C21.75,40.305 21.638,40.373 21.51,40.373C21.398,40.373 21.293,40.305 21.248,40.2L18.24,32.88V39.818C18.24,40.132 17.993,40.373 17.67,40.373C17.363,40.373 17.115,40.132 17.115,39.818V32.123C17.115,31.635 17.535,31.215 18.053,31.215C18.413,31.215 18.795,31.433 18.938,31.785L21.518,38.063L24.113,31.785C24.263,31.433 24.623,31.215 25.005,31.215C25.515,31.215 25.935,31.635 25.935,32.123V39.818C25.935,40.132 25.695,40.373 25.373,40.373ZM33.278,40.29H29.19C28.74,40.29 28.38,39.93 28.38,39.48V31.74C28.38,31.448 28.62,31.2 28.958,31.2C29.258,31.2 29.498,31.448 29.498,31.74V39.292H33.278C33.548,39.292 33.765,39.51 33.765,39.78C33.765,40.072 33.548,40.29 33.278,40.29Z"/>
  <path d="M27.803,0V10.92C27.803,12.165 28.635,15.262 32.385,15.262H41.985L27.803,0Z"/>
</svg>
