<svg xmlns="http://www.w3.org/2000/svg" fill="#000000" viewBox="0,0,24,24">
  <path d="M21.6,3.4L17.796,3.4L15.6,1L8.4,1L6.204,3.4L2.4,3.4C1.08,3.4 0,4.48 0,5.8L0,20.2C0,21.52 1.08,22.6 2.4,22.6L21.6,22.6C22.92,22.6 24,21.52 24,20.2L24,5.8C24,4.48 22.92,3.4 21.6,3.4ZM21.6,20.2L2.4,20.2L2.4,5.8L7.26,5.8L9.456,3.4L14.544,3.4L16.74,5.8L21.6,5.8L21.6,20.2ZM12,7C8.688,7 6,9.688 6,13C6,16.312 8.688,19 12,19C15.312,19 18,16.312 18,13C18,9.688 15.312,7 12,7ZM12,16.6C10.02,16.6 8.4,14.98 8.4,13C8.4,11.02 10.02,9.4 12,9.4C13.98,9.4 15.6,11.02 15.6,13C15.6,14.98 13.98,16.6 12,16.6Z"/>
</svg>
